<?xml version="1.0" standalone="no"?>
<!DOCTYPE svg PUBLIC "-//W3C//DTD SVG 20010904//EN"
 "http://www.w3.org/TR/2001/REC-SVG-20010904/DTD/svg10.dtd">
<svg version="1.0" xmlns="http://www.w3.org/2000/svg"
 width="960.000000pt" height="960.000000pt" viewBox="0 0 960.000000 960.000000"
 preserveAspectRatio="xMidYMid meet">
<metadata>
Created by potrace 1.14, written by Peter Selinger 2001-2017
</metadata>
<g transform="translate(0.000000,960.000000) scale(0.100000,-0.100000)"
fill="#000000" stroke="none">
<path d="M2359 7996 c-2 -2 -26 -6 -53 -9 -61 -8 -196 -47 -196 -58 0 -4 -13
-10 -29 -14 -16 -3 -35 -13 -42 -21 -6 -8 -16 -14 -21 -14 -5 0 -15 -6 -23
-12 -7 -7 -28 -24 -46 -38 -17 -14 -35 -27 -38 -30 -35 -27 -126 -175 -137
-222 -2 -10 -7 -28 -10 -40 -19 -74 -16 -188 10 -296 22 -96 121 -216 228
-275 60 -34 258 -111 258 -101 0 3 8 0 18 -5 9 -5 31 -11 47 -14 23 -5 280
-71 350 -90 202 -57 328 -142 357 -241 43 -150 -27 -304 -173 -380 -153 -79
-405 -96 -625 -43 -100 24 -208 107 -320 244 -30 36 -34 38 -95 39 -127 3
-161 -54 -100 -169 61 -115 165 -208 316 -282 128 -62 170 -74 315 -91 79 -10
335 -5 335 6 0 1 9 3 20 4 16 2 75 14 105 21 3 0 31 11 63 23 101 39 165 76
242 140 59 50 145 193 162 272 15 68 8 241 -11 300 -36 104 -97 183 -189 245
-29 19 -59 41 -67 47 -8 7 -16 12 -17 11 -1 -1 -26 8 -55 21 -75 33 -199 71
-346 106 -127 30 -289 75 -327 90 -206 85 -270 158 -268 304 2 95 32 164 99
226 90 83 183 111 374 112 249 2 358 -47 490 -223 48 -64 58 -69 131 -69 60 0
71 3 95 27 23 23 26 32 20 69 -8 63 -66 156 -140 227 -33 32 -150 110 -163
109 -4 0 -15 5 -23 12 -19 17 -129 56 -156 56 -12 0 -24 3 -28 7 -3 4 -16 8
-29 10 -34 5 -304 13 -308 9z"/>
<path d="M4385 7992 c-16 -2 -57 -10 -90 -18 -33 -8 -64 -16 -70 -17 -33 -8
-157 -74 -211 -112 -139 -100 -244 -275 -220 -369 12 -48 43 -66 112 -66 74 0
100 18 129 90 27 65 72 121 127 159 47 33 121 75 126 72 1 0 3 -1 5 0 46 14
112 27 118 23 4 -2 10 -1 13 4 5 9 213 7 266 -3 19 -3 60 -13 90 -21 196 -56
298 -203 301 -433 2 -145 8 -135 -86 -146 -47 -6 -74 -10 -135 -20 -25 -4 -97
-13 -155 -20 -16 -2 -46 -7 -65 -10 -19 -4 -53 -9 -75 -10 -22 -2 -40 -4 -40
-5 0 -1 -13 -3 -30 -5 -16 -1 -43 -5 -60 -8 -16 -4 -48 -9 -70 -12 -59 -9
-196 -44 -230 -59 -16 -7 -46 -19 -65 -26 -19 -8 -48 -22 -65 -32 -16 -10 -41
-22 -53 -28 -32 -14 -131 -91 -162 -126 -42 -47 -90 -121 -90 -138 0 -9 -5
-16 -11 -16 -5 0 -8 -3 -6 -7 3 -5 0 -19 -6 -33 -15 -37 -17 -48 -24 -132 -15
-197 77 -379 252 -496 22 -15 42 -29 45 -32 10 -11 165 -78 195 -84 56 -12 75
-16 98 -21 31 -8 233 -8 287 -1 151 22 247 55 351 121 67 43 137 106 177 159
12 16 22 22 22 15 1 -8 2 -60 3 -116 2 -93 4 -103 26 -122 13 -12 33 -22 45
-22 48 -3 96 -1 120 5 55 14 54 -1 51 796 -1 404 -5 749 -8 767 -26 141 -90
271 -183 369 -94 98 -226 157 -414 183 -65 8 -278 11 -335 3z m696 -1169 c-1
-133 -6 -174 -31 -276 -46 -186 -153 -324 -320 -414 -30 -17 -57 -30 -60 -30
-3 0 -32 -8 -65 -18 -63 -19 -264 -27 -335 -13 -156 31 -289 118 -343 223 -37
73 -40 198 -6 271 24 49 122 154 144 154 8 0 15 4 17 8 8 19 192 91 272 106
11 2 44 10 71 16 28 7 61 13 75 15 43 5 132 17 150 20 25 5 120 17 155 21 17
1 30 3 30 4 0 1 19 4 43 6 23 3 75 11 115 18 39 6 76 9 81 5 4 -4 8 -56 7
-116z"/>
<path d="M6700 7984 c-36 -8 -87 -22 -115 -31 -27 -10 -52 -18 -55 -18 -12 -2
-99 -51 -140 -78 -25 -17 -75 -62 -112 -100 l-67 -69 0 78 c1 138 0 144 -24
168 -18 18 -35 23 -83 25 -71 2 -108 -10 -125 -41 -9 -18 -12 -329 -12 -1378
0 -746 3 -1368 7 -1383 9 -37 40 -51 118 -53 60 -2 70 1 93 23 17 18 25 37 26
62 0 20 1 240 1 489 0 248 1 452 3 452 2 0 32 -28 67 -63 77 -76 100 -95 161
-130 186 -109 458 -140 707 -80 73 17 212 80 250 113 86 73 180 183 180 210 0
5 4 10 8 10 5 0 14 16 22 35 8 19 17 35 22 35 4 0 7 3 6 8 -1 4 4 20 10 35 7
16 12 33 12 38 0 5 5 9 12 9 6 0 9 3 5 6 -3 3 1 25 9 47 14 39 36 129 49 202
24 128 23 497 -1 620 -3 17 -7 39 -9 50 -17 118 -85 288 -158 399 -45 68 -146
176 -164 176 -7 0 -13 4 -13 10 0 25 -225 114 -320 127 -83 11 -312 9 -370 -3z
m305 -228 c61 -12 120 -29 130 -37 5 -5 17 -9 27 -9 10 0 18 -3 18 -8 0 -4 13
-13 29 -20 57 -25 138 -120 185 -216 88 -181 116 -327 110 -586 -3 -170 -5
-197 -18 -257 -4 -15 -8 -37 -10 -49 -26 -135 -104 -286 -195 -373 -46 -44
-163 -107 -217 -117 -16 -3 -42 -8 -59 -13 -32 -8 -242 -7 -285 2 -45 10 -65
15 -95 27 -60 22 -85 35 -85 42 0 5 -6 8 -13 8 -7 0 -27 14 -45 30 -18 17 -37
30 -43 30 -5 0 -9 3 -9 8 0 4 -17 25 -38 47 -69 75 -107 144 -143 262 -30 97
-34 139 -34 378 0 202 3 242 19 315 4 14 8 34 10 45 2 11 14 47 27 80 108 289
314 428 619 419 47 -1 99 -5 115 -8z"/>
<path d="M4448 4495 c-2 -2 -34 -5 -73 -9 -203 -16 -363 -59 -542 -147 -68
-33 -128 -65 -135 -72 -7 -7 -31 -25 -53 -41 -51 -36 -205 -196 -205 -212 0
-7 -3 -14 -8 -16 -31 -13 -143 -250 -158 -333 -1 -5 -7 -35 -13 -65 -20 -99
-24 -180 -24 -545 -1 -333 4 -472 17 -535 3 -14 11 -50 17 -80 13 -63 56 -189
71 -207 6 -7 8 -13 4 -13 -6 0 78 -142 104 -174 43 -55 172 -172 234 -213 56
-37 221 -123 246 -128 3 -1 43 -13 90 -27 80 -25 129 -37 175 -44 11 -2 31 -5
45 -9 121 -27 557 -27 680 0 14 3 41 7 61 10 54 7 225 59 299 90 142 59 288
157 365 244 16 19 37 42 46 50 51 50 135 200 169 301 59 175 73 318 72 735 0
313 -7 449 -26 538 -3 15 -8 39 -11 55 -10 46 -56 174 -82 227 -82 161 -210
302 -363 401 -59 38 -190 105 -190 97 0 -3 -6 -1 -12 4 -14 11 -122 50 -153
56 -11 2 -27 7 -35 10 -22 9 -142 30 -240 43 -42 6 -367 14 -372 9z m269 -811
c100 -48 148 -126 160 -265 9 -100 9 -684 0 -749 -16 -113 -33 -156 -85 -208
-103 -102 -320 -102 -420 1 -33 34 -74 115 -80 157 -8 63 -8 784 0 836 22 142
93 222 220 248 80 16 140 10 205 -20z"/>
<path d="M262 4443 c-63 -30 -59 50 -58 -1403 1 -1046 4 -1330 14 -1347 13
-24 47 -46 72 -49 17 -2 98 -4 120 -3 25 0 123 0 145 -1 11 -1 27 -1 35 -1 15
0 186 0 205 0 6 0 39 0 75 0 36 0 74 0 85 -1 11 0 34 0 50 1 17 1 38 1 48 1
87 -2 141 27 153 83 1 4 2 207 3 451 l1 444 325 -1 325 0 1 -36 c0 -20 0 -218
0 -441 1 -440 2 -456 56 -483 24 -12 103 -21 153 -18 8 1 31 1 50 0 19 -1 42
-1 50 0 8 0 40 0 70 0 30 0 61 0 68 0 31 2 40 2 90 1 29 -1 56 0 59 3 3 3 15
2 27 -3 13 -4 29 -4 36 0 8 5 21 5 29 1 9 -4 30 -5 46 -1 17 3 47 3 68 -1 20
-3 37 -4 37 0 0 3 21 6 48 5 27 -1 57 5 70 14 53 34 50 -31 51 1382 0 856 -4
1326 -10 1347 -6 19 -24 40 -42 52 -30 18 -54 19 -452 19 -393 0 -422 -1 -451
-19 -17 -10 -35 -29 -41 -42 -7 -15 -11 -161 -11 -418 -1 -217 -1 -412 -1
-434 l-1 -41 -325 0 -325 1 0 433 c0 479 0 481 -63 507 -50 20 -842 19 -885
-2z"/>
<path d="M6183 4441 c-26 -22 -41 -51 -38 -76 4 -34 16 -129 20 -155 2 -14 6
-41 9 -60 3 -19 8 -53 11 -75 3 -22 8 -56 11 -75 3 -19 7 -51 10 -70 2 -19 6
-46 9 -60 2 -14 7 -47 11 -75 3 -27 7 -61 10 -75 2 -14 7 -45 10 -70 3 -25 8
-54 10 -65 2 -11 7 -43 9 -71 3 -28 8 -62 10 -75 6 -29 24 -148 31 -205 3 -23
7 -52 9 -65 3 -13 7 -41 10 -64 3 -22 10 -69 15 -105 5 -36 12 -82 15 -102 11
-83 15 -110 21 -145 4 -21 7 -50 8 -65 0 -16 3 -28 6 -28 3 0 5 -12 6 -27 0
-16 4 -50 9 -78 4 -27 9 -61 10 -75 3 -23 7 -52 20 -135 3 -16 7 -47 10 -67 3
-21 8 -55 11 -75 3 -21 7 -54 10 -73 2 -19 6 -50 9 -67 3 -18 7 -50 10 -70 3
-21 8 -49 10 -63 3 -14 7 -47 10 -75 9 -80 27 -126 62 -160 43 -42 92 -55 200
-55 48 -1 95 -1 103 -1 8 0 45 0 82 1 36 1 70 0 75 -3 5 -3 25 -2 44 2 18 4
48 4 66 0 18 -3 35 -4 38 -1 4 5 54 5 100 1 23 -3 69 11 94 27 42 28 56 49 96
146 21 51 46 112 56 135 11 24 19 46 19 51 0 5 9 27 20 50 11 22 20 47 20 55
0 7 4 17 8 23 7 7 55 118 58 134 1 7 22 59 33 85 29 64 81 203 81 215 0 30 21
-9 70 -135 29 -71 58 -143 65 -160 20 -45 140 -349 140 -355 0 -3 3 -9 7 -15
3 -5 20 -46 37 -90 17 -44 39 -89 49 -101 34 -41 94 -68 142 -65 13 0 172 0
205 0 6 0 40 0 77 1 36 1 70 0 75 -3 5 -3 25 -2 44 2 18 4 48 4 66 0 18 -3 35
-4 37 -1 3 2 36 5 74 6 38 1 75 7 83 14 8 7 23 20 35 30 30 25 54 65 59 98 4
33 10 69 25 174 7 41 13 89 15 105 2 17 6 44 9 60 3 17 8 50 11 75 3 25 8 56
10 70 3 14 7 48 10 75 3 28 8 61 11 75 9 48 11 65 18 115 4 28 9 61 11 75 2
14 6 45 9 70 3 25 8 54 10 65 2 11 7 43 10 70 4 28 11 77 16 110 5 33 12 83
16 110 3 28 7 57 9 65 1 8 6 40 10 70 4 30 9 64 11 75 2 11 7 40 10 65 5 44 8
63 18 125 2 17 8 53 11 80 10 73 20 136 35 240 10 65 17 117 25 180 2 22 7 51
10 65 3 14 7 43 10 65 2 22 7 51 9 65 3 14 7 45 10 70 3 25 8 57 11 71 11 58
12 115 2 134 -27 52 -9 50 -466 50 -234 0 -433 -3 -441 -5 -21 -7 -60 -52 -61
-70 0 -8 -2 -22 -3 -30 -3 -14 -8 -48 -21 -155 -8 -68 -27 -229 -31 -255 -2
-14 -5 -47 -8 -75 -3 -27 -8 -66 -11 -85 -6 -47 -16 -137 -20 -180 -2 -19 -6
-54 -9 -77 -9 -63 -15 -112 -21 -163 -9 -76 -17 -125 -20 -129 -2 -1 -9 17
-16 40 -15 54 -14 51 -22 69 -3 8 -29 87 -57 175 -29 88 -58 174 -66 192 -8
17 -14 36 -14 42 0 11 -66 80 -78 82 -4 0 -113 2 -242 2 -308 2 -308 3 -364
-153 -15 -41 -29 -85 -32 -96 -2 -12 -11 -38 -19 -58 -8 -20 -12 -36 -9 -36 4
0 2 -6 -4 -12 -6 -7 -17 -38 -25 -68 -25 -91 -66 -196 -67 -175 -1 11 -3 36
-5 55 -13 108 -15 127 -19 150 -3 14 -7 52 -10 85 -3 33 -8 71 -10 85 -2 14
-7 50 -10 80 -13 111 -17 146 -21 175 -3 17 -7 55 -10 85 -4 30 -8 70 -10 87
-3 18 -8 57 -11 85 -3 29 -7 64 -10 78 -2 14 -7 54 -10 90 -9 85 -8 80 -27
117 -11 22 -28 35 -50 41 -17 5 -217 9 -443 9 -367 0 -412 -1 -431 -16z"/>
</g>
</svg>
